<svg width="233" height="172" viewBox="0 0 233 172" fill="none" xmlns="http://www.w3.org/2000/svg">
<rect width="231.222" height="64.7381" transform="translate(32.4316) rotate(30.0643)" fill="#F72528"/>
<path d="M84.6031 70.5697L92.4331 54.9568L95.6944 48.7738L102.263 52.5762L98.526 58.4837L88.8871 73.0495L84.6031 70.5697ZM80.1874 83.1385C79.0767 82.4956 78.3543 81.5479 78.0202 80.2953C77.7362 79.0294 77.934 77.8093 78.6136 76.6352C79.3117 75.4293 80.2711 74.6501 81.4919 74.2977C82.7445 73.9635 83.9261 74.1179 85.0368 74.7609C86.2109 75.4405 86.9333 76.3882 87.204 77.6041C87.5064 78.8383 87.3085 80.0583 86.6105 81.2642C85.9309 82.4383 84.9714 83.2175 83.7322 83.6017C82.5431 83.9726 81.3615 83.8182 80.1874 83.1385ZM107.319 98.0808L118.064 79.5166C118.781 78.279 119 77.241 118.723 76.4026C118.496 75.5509 117.875 74.8311 116.859 74.2433L108.005 69.1183L111.009 63.9299L121.719 70.1294C123.305 71.0479 124.543 72.1668 125.432 73.4861C126.32 74.8054 126.737 76.3177 126.682 78.0229C126.659 79.7464 126.023 81.6872 124.774 83.8451L116.783 97.6492L114.221 102.076L107.319 98.0808ZM92.372 89.429L95.3478 84.2882L114.721 95.5024L111.603 100.561L92.372 89.429ZM90.8964 88.5749L104.205 65.5838L106.629 61.395L113.532 65.3902L110.886 69.9599L97.7985 92.5701L90.8964 88.5749ZM135.584 114.442L146.192 96.1158C147.606 93.6723 147.25 91.8352 145.124 90.6045L131.844 82.917L134.847 77.7286L149.984 86.4906C151.602 87.4274 152.847 88.5713 153.717 89.9224C154.587 91.2735 154.976 92.8333 154.885 94.602C154.811 96.3389 154.15 98.2863 152.901 100.444L142.486 118.437L135.584 114.442ZM119.114 104.908L133.056 80.8226L139.958 84.8179L126.016 108.904L119.114 104.908Z" fill="white"/>
</svg>
