<svg width="155" height="68" viewBox="0 0 155 68" fill="none" xmlns="http://www.w3.org/2000/svg">
<path d="M91.2471 0.283054H92.1359C112.452 0.280319 132.768 0.273207 153.084 0.261719C153.763 0.261719 154.013 0.430755 154.013 1.21687C153.994 22.9976 153.989 44.7781 153.997 66.5583C153.997 66.8447 153.975 67.1327 153.959 67.511H91.2471V0.283054ZM108.629 41.8788C108.901 42.0428 109.044 42.1495 109.201 42.2234C110.22 42.688 111.328 42.884 112.432 42.7949C113.536 42.7058 114.603 42.3341 115.546 41.7111C116.488 41.088 117.277 40.2318 117.847 39.2143C118.417 38.1967 118.75 37.0476 118.82 35.8631C118.873 34.7791 118.915 33.6919 118.893 32.6079C118.838 30.0228 119.692 27.5101 121.286 25.569C123.838 22.3097 128.432 20.7235 131.886 21.9585C131.574 22.2046 131.302 22.4295 131.017 22.6338C129.834 23.4518 128.827 24.5291 128.06 25.7946C127.294 27.0601 126.786 28.4853 126.57 29.9763C126.338 31.8754 126.238 33.7905 126.272 35.7056C126.239 37.4207 125.863 39.1083 125.168 40.6537C124.473 42.1991 123.476 43.5661 122.244 44.6619C121.013 45.7577 119.576 46.5567 118.032 47.0046C116.487 47.4524 114.871 47.5387 113.292 47.2576C112.512 47.2315 111.733 47.3168 110.974 47.5112C113.351 49.9425 117.219 51.0257 121.027 50.5949C123.938 50.2591 126.678 48.9557 128.865 46.8672C131.05 44.7787 132.572 42.0096 133.217 38.9476C133.633 36.7854 133.512 34.505 133.635 32.278C133.666 31.0492 133.983 29.8481 134.556 28.7834C135.129 27.7188 135.941 26.8241 136.918 26.1804C138.109 27.105 138.944 28.463 139.269 30.0001C139.492 31.1214 139.653 32.2561 139.75 33.3981C139.812 33.9832 140.021 34.2482 140.592 34.2441C142.65 34.2288 144.708 34.2302 146.766 34.2482C147.39 34.2523 147.634 33.9463 147.577 33.3021C147.466 32.0638 147.402 30.8191 147.251 29.5865C146.923 27.0742 146.134 24.6563 144.928 22.473C143.723 20.2897 142.127 18.3843 140.23 16.8669C138.334 15.3495 136.176 14.2503 133.88 13.633C131.585 13.0157 129.198 12.8924 126.858 13.2702C120.004 14.392 115.35 18.5786 112.705 25.4016C111.704 28.1537 111.292 31.1115 111.499 34.057C111.635 35.5113 111.446 36.9795 110.947 38.3398C110.448 39.7 109.654 40.9132 108.631 41.8788M104.129 33.2824H99.1007C96.6175 33.2824 96.5631 33.2824 96.7335 35.9517C97.0512 40.9129 99.3713 44.4701 103.666 46.2959C107.902 48.1012 111.856 47.2765 115.322 44.0705C115.911 43.4491 116.459 42.7842 116.961 42.0806C113.887 44.0902 110.838 44.4324 107.77 42.422C104.636 40.3705 103.806 37.1136 104.129 33.2824ZM98.3167 43.103C99.8925 48.472 106.064 55.0957 114.802 55.2976C120.772 55.4354 129.269 50.7844 130.085 46.9113C129.883 47.0976 129.702 47.2609 129.525 47.4307C126.978 49.9127 123.716 51.3889 120.28 51.6152C116.844 51.8415 113.439 50.8045 110.627 48.6755C110.039 48.1964 109.306 47.9683 108.57 48.0355C106.885 48.183 105.19 47.9305 103.606 47.2956C102.022 46.6607 100.588 45.6593 99.4061 44.3626C99.0721 44.013 98.7706 43.6241 98.3161 43.0989" fill="black"/>
<path d="M118.675 18.2383C126.1 11.3455 138.814 12.9202 144.394 23.5721C144.111 23.3538 143.962 23.2512 143.826 23.133C141.777 21.4357 139.221 20.596 136.636 20.7706C136.051 20.7983 135.478 20.5912 135.029 20.1897C130.016 16.0277 124.599 15.4607 118.675 18.2351" fill="black"/>
<path d="M21.9912 9.1145V4.75242H23.213V8.14225L22.4383 9.1145H21.9912ZM27.0439 11.5685C26.8047 11.5685 26.5674 11.546 26.3316 11.5009C26.0994 11.4558 25.8914 11.3796 25.7077 11.2721C25.5345 11.1751 25.3698 11.0503 25.2139 10.8978C25.0578 10.7453 24.9209 10.5564 24.8031 10.3311C24.6471 10.0399 24.5327 9.71067 24.4599 9.34327C24.3906 8.97239 24.356 8.54602 24.356 8.06424V4.75242H25.5829V8.06424C25.5829 8.54261 25.6211 8.95159 25.6974 9.29126C25.7771 9.63092 25.8949 9.90127 26.0509 10.1023C26.1653 10.2514 26.3074 10.3657 26.4772 10.4455C26.647 10.5252 26.8429 10.565 27.0647 10.565C27.3004 10.565 27.5067 10.5217 27.6834 10.4351C27.8636 10.3449 28.0092 10.2185 28.1201 10.0555C28.2865 9.83021 28.3992 9.54428 28.4581 9.19767C28.5204 8.84758 28.5517 8.47155 28.5517 8.06945C28.5517 7.67778 28.5222 7.31559 28.4633 6.98287C28.4078 6.64663 28.3073 6.36933 28.1617 6.151C28.0404 5.97419 27.8862 5.84423 27.699 5.76107C27.5118 5.67784 27.3073 5.63626 27.0855 5.63626C27.0231 5.63626 26.9607 5.64147 26.8983 5.6519C26.836 5.65879 26.7736 5.66748 26.7112 5.67784V4.70043C26.8221 4.67964 26.9313 4.66577 27.0387 4.65884C27.1496 4.65191 27.2571 4.64844 27.3611 4.64844C27.6106 4.64844 27.8481 4.67617 28.0733 4.73162C28.2986 4.78362 28.5049 4.872 28.692 4.99678C28.855 5.09383 28.9988 5.21861 29.1236 5.37113C29.2484 5.52014 29.3541 5.69864 29.4407 5.9066C29.5585 6.17005 29.6469 6.48198 29.7059 6.84249C29.7648 7.19947 29.7943 7.60672 29.7943 8.06424C29.7943 8.41085 29.7717 8.7332 29.7267 9.03128C29.6851 9.32589 29.621 9.59629 29.5343 9.84237C29.4199 10.1612 29.2726 10.4368 29.0924 10.669C28.9121 10.8978 28.6973 11.085 28.4477 11.2305C28.2536 11.3415 28.0387 11.4246 27.803 11.4801C27.5673 11.539 27.3143 11.5685 27.0439 11.5685ZM30.3809 11.4697V10.4974H32.3774C32.412 10.3415 32.438 10.1855 32.4554 10.0295C32.4727 9.87358 32.4814 9.71756 32.4814 9.5616V6.50972C32.4814 6.36412 32.4623 6.23243 32.4241 6.11457C32.3895 5.9933 32.3358 5.8945 32.263 5.81823C32.2041 5.7628 32.1365 5.71948 32.0602 5.68827C31.984 5.65358 31.8956 5.63626 31.7951 5.63626C31.6599 5.63626 31.5213 5.64321 31.3792 5.65705C31.2405 5.67095 31.0898 5.69174 30.9268 5.71948V4.72643C31.0585 4.6987 31.2041 4.67964 31.3636 4.66923C31.5265 4.65537 31.7032 4.64844 31.8939 4.64844C32.1642 4.64844 32.3913 4.67443 32.575 4.72643C32.7587 4.77495 32.9129 4.84254 33.0377 4.92919C33.159 5.01584 33.2612 5.1233 33.3444 5.25154C33.4276 5.37976 33.4935 5.51493 33.542 5.65705C33.594 5.77143 33.6338 5.90145 33.6616 6.04699C33.6927 6.18911 33.7084 6.34333 33.7084 6.50972V9.5616C33.7084 9.74878 33.698 9.94632 33.6772 10.1543C33.6599 10.3588 33.6391 10.5546 33.6148 10.7418C33.5905 10.929 33.5663 11.0815 33.542 11.1993L33.49 11.4697H30.3809ZM34.9241 11.5269C34.8305 11.5269 34.7265 11.52 34.6122 11.5061C34.5013 11.4922 34.3817 11.4732 34.2534 11.4489L34.3834 10.357C34.4874 10.3813 34.5931 10.4004 34.7005 10.4143C34.808 10.4247 34.9172 10.4298 35.0281 10.4298C35.2811 10.4298 35.5099 10.3762 35.7144 10.2687C35.9223 10.1612 36.0939 10.007 36.2291 9.80594C36.3227 9.66388 36.3955 9.5027 36.4474 9.32247C36.4995 9.14219 36.5255 8.94117 36.5255 8.71936V6.50972C36.5255 6.23938 36.4821 6.0262 36.3955 5.87023C36.3123 5.71427 36.1494 5.63626 35.9068 5.63626C35.7681 5.63626 35.6277 5.64669 35.4856 5.66748C35.3435 5.68479 35.1858 5.71427 35.0125 5.75585V4.76282C35.3626 4.68657 35.7023 4.64844 36.0315 4.64844C36.3192 4.64844 36.5636 4.67964 36.7646 4.74203C36.9657 4.80095 37.1286 4.88413 37.2533 4.99158C37.4405 5.14756 37.5687 5.35381 37.638 5.61026C37.7108 5.86328 37.7473 6.14752 37.7473 6.46292V11.4697H36.801L36.6294 10.4351H36.5618C36.496 10.5529 36.4163 10.6725 36.3227 10.7938C36.2326 10.9116 36.1442 11.0087 36.0575 11.085C35.9189 11.2201 35.7508 11.3276 35.5532 11.4073C35.3557 11.487 35.1459 11.5269 34.9241 11.5269ZM44.9619 14.0277V8.10588C44.9619 7.63794 44.929 7.24279 44.8632 6.92044C44.7973 6.59809 44.7003 6.34681 44.572 6.16658C44.4438 5.96903 44.2861 5.83386 44.0989 5.76107C43.9117 5.68479 43.7055 5.64669 43.4802 5.64669C43.2514 5.64669 43.0348 5.68306 42.8303 5.75585C42.6293 5.82865 42.4698 5.93434 42.352 6.07299C42.2446 6.19432 42.1579 6.33644 42.0921 6.49935C42.0296 6.65879 41.9985 6.83033 41.9985 7.01403C41.9985 7.24626 42.0348 7.45076 42.1076 7.62751C42.1804 7.80085 42.2844 7.93949 42.4196 8.04345C42.5097 8.1093 42.6102 8.16478 42.7211 8.20983C42.832 8.25489 42.9551 8.28958 43.0903 8.31385L43.3242 8.36058L43.1319 9.24968L42.8823 9.23925C42.56 9.23578 42.2653 9.17862 41.9985 9.06771C41.7316 8.95333 41.5045 8.79042 41.3174 8.57898C41.1544 8.3918 41.028 8.16651 40.9378 7.90307C40.8477 7.6362 40.8027 7.3329 40.8027 6.99324C40.8027 6.67437 40.8581 6.37628 40.969 6.09899C41.0834 5.81823 41.2342 5.58599 41.4214 5.40229C41.515 5.3087 41.6241 5.22034 41.7489 5.13716C41.8772 5.0505 42.0019 4.97945 42.1232 4.92399C42.3312 4.83041 42.5461 4.76109 42.7679 4.71603C42.9932 4.67097 43.2307 4.64844 43.4802 4.64844C43.7748 4.64844 44.0452 4.67964 44.2913 4.74203C44.5408 4.80442 44.7661 4.89973 44.9671 5.02798C45.137 5.13542 45.2947 5.27234 45.4403 5.43872C45.5858 5.6051 45.7106 5.79744 45.8146 6.01583C45.9429 6.28269 46.0382 6.5912 46.1006 6.94123C46.1664 7.29132 46.1994 7.67952 46.1994 8.10588V14.0277H44.9619ZM47.4359 11.4697V4.75242H48.6577V11.4697H47.4359ZM49.4939 11.4697V10.4974H52.5614L53.2425 10.5234L51.7607 8.43859L49.4315 4.75242H50.7729L52.4522 7.50798L52.7434 7.96028C52.9514 7.72457 53.116 7.45945 53.2373 7.16484C53.3621 6.86676 53.4418 6.53746 53.4765 6.177L53.6064 4.75242H54.7918L54.6671 6.08341C54.6532 6.23938 54.6341 6.38497 54.6098 6.52014C54.5891 6.65531 54.563 6.78527 54.5319 6.91007C54.5042 7.03135 54.4677 7.15094 54.4227 7.26879C54.3776 7.40396 54.3222 7.53566 54.2563 7.66394C54.1939 7.79216 54.1212 7.92218 54.0379 8.05387C53.9478 8.20289 53.8474 8.34501 53.7364 8.48018C53.6255 8.61535 53.5059 8.74189 53.3777 8.85974L54.7554 10.7574V11.4697H49.4939ZM55.6644 9.1145V4.75242H56.8864V8.14225L56.1114 9.1145H55.6644ZM60.6546 11.4697V6.85286C60.6546 6.49935 60.5767 6.23243 60.4209 6.0522C60.2685 5.8685 60.0393 5.74717 59.7344 5.68827C59.6548 5.664 59.5663 5.64669 59.4693 5.63626C59.3724 5.62589 59.2681 5.62068 59.1572 5.62068C59.012 5.62068 58.8383 5.62416 58.6377 5.63105C58.4365 5.638 58.2303 5.64842 58.019 5.66226C57.8072 5.67611 57.6099 5.69001 57.4261 5.70385V4.72123C57.7483 4.69696 58.0465 4.67964 58.3205 4.66923C58.594 4.65537 58.8456 4.64844 59.0742 4.64844C59.5282 4.64844 59.8868 4.6675 60.1502 4.70563C60.4136 4.74376 60.6512 4.81135 60.8625 4.9084C61.0777 5.00545 61.2542 5.1233 61.3932 5.26194C61.5316 5.39713 61.6426 5.57389 61.7255 5.79222C61.781 5.95166 61.8191 6.11457 61.8404 6.28096C61.8645 6.44734 61.8763 6.638 61.8763 6.85286V11.4697H60.6546Z" fill="black"/>
<path d="M25.3504 32.1949H21.9617V24.2846H19.4004V32.1949H15.992V23.3192C15.992 22.1896 16.524 21.6248 17.5878 21.6248H23.7546C24.8185 21.6248 25.3504 22.1568 25.3504 23.2207V32.1949ZM29.66 22.5705L28.143 25.3978H27.1579V20.0684H29.66V22.5705ZM33.0093 22.5705L31.4923 25.3978H30.5072V20.0684H33.0093V22.5705ZM43.3675 32.1949H39.9787V24.2846H34.3144V21.6248H41.9785C42.9044 21.6248 43.3675 22.1206 43.3675 23.1123V32.1949ZM37.7622 32.1949H34.3144V25.979H37.7622V32.1949ZM48.5045 27.8407H45.0961V21.6248H48.5045V27.8407ZM58.6458 32.1949H49.849V29.5351H54.2721V24.2846H49.9672V21.6248H56.4686C57.2633 21.6248 57.6606 22.055 57.6606 22.9153V29.5351H58.6458V32.1949ZM68.4031 32.1949H59.6064V29.5351H64.0291V24.2846H59.7246V21.6248H66.2259C67.0206 21.6248 67.4179 22.055 67.4179 22.9153V29.5351H68.4031V32.1949ZM10.823 49.0072H7.10918L4.04555 44.1014H3.93719V49.0072H0.528754V45.0077C0.528754 44.5283 0.732346 44.1211 1.13952 43.7862L2.85358 42.3085L0.25293 38.6539V38.4371H3.9766L6.80382 42.8109H6.88261V38.4371H10.2714V41.5401C10.2714 42.1641 10.0645 42.6566 9.65076 43.0178L7.89729 44.4856L10.823 48.7807V49.0072ZM20.7674 47.5099C20.7674 48.5081 20.3044 49.0072 19.3784 49.0072H11.8128V46.3475H17.3786V41.0969H15.1424V42.8307H16.3344V45.1555H11.7931V40.033C11.7931 38.9691 12.3316 38.4371 13.4087 38.4371H19.3784C20.3044 38.4371 20.7674 38.933 20.7674 39.9246V47.5099ZM26.0128 49.0072H22.6044V38.4371H26.0128V49.0072ZM35.4745 49.0072H32.0857V41.0969H27.5247V38.4371H34.0855C35.0115 38.4371 35.4745 38.933 35.4745 39.9246V49.0072ZM46.3349 49.0072H42.9462V41.0969H37.2819V38.4371H44.946C45.8719 38.4371 46.3349 38.933 46.3349 39.9246V49.0072ZM40.7298 49.0072H37.2819V42.7913H40.7298V49.0072ZM60.9043 53.0461H57.5155V41.0969H55.3581V42.8307H56.4714V45.1555H51.9496V39.8655C51.9496 38.9133 52.4816 38.4371 53.5455 38.4371H59.515C60.4414 38.4371 60.9043 38.933 60.9043 39.9246V53.0461ZM72.0895 46.0421C72.0895 46.9089 71.8468 47.6149 71.361 48.1601C70.8353 48.7511 70.0771 49.0466 69.0851 49.0466H65.6963C63.7198 49.0466 62.7312 48.0451 62.7312 46.0421V38.4371H72.0895V46.0421ZM68.7007 46.3671V41.0969H66.1396V46.3671H68.7007ZM83.8761 49.0072H80.1622L77.099 44.1014H76.9903V49.0072H73.5819V45.0077C73.5819 44.5283 73.7853 44.1211 74.1927 43.7862L75.907 42.3085L73.3062 38.6539V38.4371H77.0295L79.8568 42.8109H79.9358V38.4371H83.3246V41.5401C83.3246 42.1641 83.1178 42.6566 82.7037 43.0178L80.9507 44.4856L83.8761 48.7807V49.0072Z" fill="black"/>
</svg>
