<svg width="28" height="28" viewBox="0 0 28 28" fill="none" xmlns="http://www.w3.org/2000/svg">
<circle cx="14.2176" cy="13.5936" r="13.6034" fill="url(#paint0_linear_66_3500)"/>
<path d="M20.2789 15.3845L20.7821 12.472C20.8117 12.3012 20.8036 12.1261 20.7584 11.9589C20.7132 11.7917 20.632 11.6363 20.5204 11.5037C20.4089 11.3711 20.2698 11.2645 20.1128 11.1913C19.9558 11.1181 19.7847 11.0801 19.6114 11.0799H15.9129C15.8266 11.08 15.7413 11.0612 15.663 11.0249C15.5847 10.9887 15.5152 10.9358 15.4593 10.87C15.4035 10.8041 15.3627 10.727 15.3397 10.6438C15.3167 10.5606 15.312 10.4734 15.3261 10.3882L15.7994 7.50065C15.8759 7.03179 15.854 6.55216 15.7352 6.09221C15.6839 5.90233 15.5856 5.72843 15.4493 5.58657C15.3131 5.44472 15.1433 5.33947 14.9556 5.28055L14.8521 5.247C14.6181 5.17212 14.3642 5.18948 14.1426 5.29555C13.8998 5.41262 13.7228 5.62606 13.6571 5.87948L13.3173 7.18869C13.2093 7.60538 13.0521 8.00773 12.849 8.38726C12.5528 8.94193 12.0945 9.38666 11.6176 9.79713L10.5904 10.6823C10.4479 10.8055 10.3366 10.9606 10.2656 11.1351C10.1946 11.3095 10.166 11.4983 10.1821 11.686L10.7617 18.3913C10.7873 18.6878 10.9231 18.964 11.1424 19.1653C11.3616 19.3666 11.6484 19.4783 11.946 19.4785H15.264C17.7497 19.4785 19.8706 17.7466 20.2789 15.3845Z" fill="white"/>
<path fill-rule="evenodd" clip-rule="evenodd" d="M7.92764 10.5435C8.0656 10.5374 8.20056 10.585 8.30432 10.6761C8.40808 10.7672 8.47262 10.8949 8.48445 11.0325L9.17689 19.0534C9.18862 19.1728 9.17588 19.2934 9.13945 19.4078C9.10301 19.5221 9.04365 19.6278 8.96498 19.7185C8.88631 19.8091 8.79 19.8828 8.68191 19.9349C8.57382 19.9871 8.45623 20.0167 8.33633 20.0219C8.21642 20.0271 8.09672 20.0078 7.98452 19.9652C7.87232 19.9226 7.76999 19.8575 7.68378 19.774C7.59756 19.6905 7.52927 19.5903 7.48307 19.4796C7.43688 19.3688 7.41375 19.2498 7.41509 19.1298V11.0782C7.41515 10.9402 7.4685 10.8075 7.56399 10.7079C7.65949 10.6083 7.78977 10.5494 7.92764 10.5435Z" fill="white"/>
<defs>
<linearGradient id="paint0_linear_66_3500" x1="14.2176" y1="-0.00976563" x2="14.2176" y2="27.197" gradientUnits="userSpaceOnUse">
<stop stop-color="#0074FF"/>
<stop offset="1" stop-color="#00AAFF"/>
</linearGradient>
</defs>
</svg>
