<svg width="29" height="29" viewBox="0 0 29 29" fill="none" xmlns="http://www.w3.org/2000/svg">
<path d="M14.4598 28.2692C16.2857 28.2692 18.0938 27.9096 19.7807 27.2108C21.4676 26.5121 23.0004 25.4879 24.2915 24.1968C25.5826 22.9057 26.6068 21.3729 27.3056 19.686C28.0043 17.999 28.364 16.191 28.364 14.3651C28.364 12.5392 28.0043 10.7311 27.3056 9.0442C26.6068 7.35727 25.5826 5.82449 24.2915 4.53337C23.0004 3.24225 21.4676 2.21808 19.7807 1.51933C18.0938 0.820579 16.2857 0.460937 14.4598 0.460938C10.7722 0.460938 7.23563 1.92583 4.62809 4.53337C2.02056 7.1409 0.555664 10.6775 0.555664 14.3651C0.555664 18.0527 2.02056 21.5893 4.62809 24.1968C7.23563 26.8043 10.7722 28.2692 14.4598 28.2692Z" fill="url(#paint0_linear_66_3566)"/>
<path d="M14.5164 25.4882C17.4192 25.4866 18.8702 23.0524 18.8702 20.0476C18.8702 17.0428 16.92 14.6055 14.5179 14.6055C12.1127 14.6055 10.1641 17.0428 10.1641 20.0476C10.1641 23.0524 10.8896 25.0206 14.5179 25.4866" fill="url(#paint1_linear_66_3566)"/>
<path d="M11.3731 11.0321C11.3731 12.739 10.3349 14.123 9.05369 14.123C7.7745 14.123 6.73633 12.739 6.73633 11.0321C6.73633 9.32735 7.77656 7.94336 9.05369 7.94336C10.3349 7.94336 11.3731 9.32735 11.3731 11.0321Z" fill="#0D132D"/>
<path d="M22.1854 11.0321C22.1854 12.739 21.1493 14.123 19.868 14.123C18.5888 14.123 17.5527 12.739 17.5527 11.0321C17.5527 9.32735 18.5888 7.94336 19.868 7.94336C21.1493 7.94336 22.1854 9.32735 22.1854 11.0321Z" fill="#0D132D"/>
<path d="M5.19043 6.39835C5.96288 5.46304 8.28024 4.39419 9.82515 5.06207" stroke="#F08F1E" stroke-width="1.54491" stroke-linecap="round"/>
<path d="M23.7295 6.39835C22.957 5.46304 20.6397 4.39419 19.0948 5.06207" stroke="#F08F1E" stroke-width="1.54491" stroke-linecap="round"/>
<defs>
<linearGradient id="paint0_linear_66_3566" x1="3.64547" y1="5.09565" x2="27.5915" y2="26.7243" gradientUnits="userSpaceOnUse">
<stop stop-color="#FFD97C"/>
<stop offset="1" stop-color="#FF8C09"/>
</linearGradient>
<linearGradient id="paint1_linear_66_3566" x1="14.5171" y1="14.6055" x2="14.5171" y2="25.4882" gradientUnits="userSpaceOnUse">
<stop stop-color="#2F1010"/>
<stop offset="1" stop-color="#7C5029"/>
</linearGradient>
</defs>
</svg>
