<svg width="209" height="73" viewBox="0 0 209 73" fill="none" xmlns="http://www.w3.org/2000/svg">
<path d="M71.6946 51.2276H66.2849V38.0914C66.2849 35.1216 66.2849 31.3339 66.3597 28.3696C65.6954 31.3339 64.7199 35.1235 63.8557 38.0493L60.0632 51.2239H54.1979L50.3254 38.0036C49.5012 35.1198 48.5257 31.3303 47.9014 28.4026C47.9762 31.3723 47.9762 35.118 47.9762 38.0877V51.2239H42.5752V22.8125H51.1097L57.2149 45.998L63.3166 22.8125H71.6963L71.6946 51.2276Z" fill="#9B0BF9"/>
<path d="M87.2432 52.0443C85.0505 57.9766 82.7829 59.8723 78.5488 59.8723C77.7379 59.8849 76.9273 59.8298 76.1247 59.7076V55.7973C76.6573 55.8631 77.1937 55.8894 77.7297 55.876C78.602 55.934 79.4668 55.6747 80.1791 55.1417C80.8913 54.6087 81.4079 53.8343 81.6422 52.9483L81.9135 52.2438L73.4277 29.3145H79.453L84.6227 46.8953L89.7072 29.3145H95.6194L87.2432 52.0443Z" fill="#9B0BF9"/>
<path d="M121.502 36.7243V51.22H117.155L116.807 46.6052L115.59 49.489C114.7 50.3205 113.659 50.954 112.531 51.3515C111.402 51.7489 110.209 51.9021 109.022 51.8019C101.498 51.8019 96.7666 46.1972 96.7666 37.1799C96.7666 27.8716 102.526 22.2285 110.074 22.2285C117.392 22.2285 121.194 26.4371 121.737 32.029L121.777 32.437H116.373L116.293 32.029C116.132 30.4247 115.386 28.9486 114.211 27.9122C113.037 26.8757 111.525 26.36 109.996 26.4737C105.616 26.4737 102.477 30.384 102.477 36.8469C102.477 43.9337 105.607 47.5586 109.84 47.5586C111.498 47.5871 113.102 46.9377 114.315 45.7471C115.528 44.5565 116.255 42.9173 116.343 41.1744H110.624V36.7243H121.502Z" fill="#9B0BF9"/>
<path d="M144.137 41.748H129.34C129.688 46.3628 131.65 47.8083 134.154 47.8083C135.191 47.8913 136.22 47.5532 137.028 46.8635C137.837 46.1739 138.363 45.1848 138.501 44.0993H143.902C142.846 49.2063 138.929 51.8046 134.039 51.8046C128.325 51.8046 123.899 48.0517 123.899 40.3518C123.899 33.6364 128.088 28.7344 134.467 28.7344C140.845 28.7344 144.213 33.8414 144.213 39.8157C144.222 40.4608 144.197 41.1058 144.138 41.748M129.499 38.0426H138.657C138.31 34.5861 136.821 32.7362 134.237 32.7362C131.733 32.7362 129.972 34.4251 129.499 38.0426Z" fill="#9B0BF9"/>
<path d="M166.732 38.8684V51.2251H161.331V39.6515C161.331 38.7458 161.331 37.7137 161.256 36.6031C161.269 36.0619 161.171 35.5241 160.97 35.0257C160.769 34.5274 160.469 34.0801 160.09 33.7137C159.712 33.3474 159.263 33.0705 158.774 32.9017C158.285 32.7329 157.768 32.676 157.256 32.7348C154.631 32.7348 152.561 35.1136 152.561 41.2178V51.2251H147.162V29.3149H152.563V32.8556L154.168 30.2628C155.631 29.1834 157.393 28.6471 159.178 28.7385C163.598 28.7385 166.144 31.0404 166.577 34.8721C166.7 36.2 166.751 37.5342 166.732 38.8684Z" fill="#9B0BF9"/>
<path d="M189.526 41.748H174.724C175.072 46.3628 177.033 47.8083 179.537 47.8083C180.575 47.8913 181.604 47.5532 182.412 46.8635C183.22 46.1739 183.747 45.1848 183.885 44.0993H189.286C188.23 49.2063 184.312 51.8046 179.423 51.8046C173.709 51.8046 169.283 48.0517 169.283 40.3518C169.283 33.6364 173.472 28.7344 179.85 28.7344C186.229 28.7344 189.597 33.8414 189.597 39.8157C189.606 40.4608 189.581 41.1058 189.522 41.748M174.882 38.0426H184.041C183.693 34.5861 182.205 32.7362 179.621 32.7362C177.117 32.7362 175.355 34.4251 174.882 38.0426Z" fill="#9B0BF9"/>
<path d="M208.234 35.6553H202.832C202.797 34.7899 202.442 33.9731 201.843 33.3797C201.243 32.7863 200.446 32.4636 199.623 32.4806C199.31 32.4384 198.992 32.4682 198.69 32.5679C198.389 32.6676 198.111 32.8349 197.877 33.0582C197.643 33.2814 197.458 33.5554 197.334 33.8613C197.21 34.1672 197.15 34.4977 197.159 34.8301C197.159 36.4769 198.451 37.3442 201.893 38.2482C206.158 39.4028 208.662 41.218 208.662 45.249C208.662 49.657 204.87 51.8016 200.093 51.8016C195.05 51.8016 191.482 49.4887 190.899 44.5519H196.29C196.398 45.5421 196.858 46.4528 197.577 47.1016C198.296 47.7503 199.221 48.0893 200.168 48.0505C201.887 48.0505 203.221 47.2673 203.221 45.6717C203.221 43.9773 201.847 43.0368 198.251 42.0889C194.374 41.0624 191.713 39.2893 191.713 35.5016C191.713 31.2931 195.003 28.7441 199.971 28.7441C204.939 28.7441 207.761 31.6718 208.229 35.6663" fill="#9B0BF9"/>
<path d="M28.8155 67.2878C32.3455 67.2878 34.9016 64.2759 33.94 61.2384L26.4628 37.5863C26.2158 36.8147 26.2158 35.9792 26.4628 35.2076L33.94 11.5555C34.9016 8.53445 32.3455 5.51709 28.8155 5.51709C27.7257 5.46662 26.6478 5.77275 25.7301 6.39337C24.8124 7.01399 24.1001 7.91861 23.691 8.98275L15.6435 34.4171C15.236 35.7091 15.236 37.1049 15.6435 38.3969L23.691 63.8313C24.1008 64.8942 24.8137 65.7973 25.7314 66.4163C26.6491 67.0353 27.7266 67.3398 28.8155 67.2878Z" fill="#F72585"/>
<path d="M5.32917 72.8089C4.50537 72.8091 3.69277 72.6082 2.95524 72.222C2.21772 71.8357 1.57538 71.2748 1.07873 70.5832C0.582081 69.8915 0.24466 69.0881 0.0929952 68.2361C-0.0586692 67.384 -0.0204424 66.5065 0.20467 65.6727L7.68189 37.7974C7.92833 36.8822 7.92833 35.9129 7.68189 34.9977L0.20467 7.1389C0.0143372 6.43075 -0.041583 5.69009 0.0401025 4.95921C0.121788 4.22832 0.33948 3.52152 0.680748 2.87916C1.02202 2.2368 1.48018 1.67147 2.02907 1.21543C2.57797 0.759396 3.20685 0.421592 3.87981 0.221307C5.23891 -0.183187 6.69505 -0.00298218 7.92789 0.722278C9.16073 1.44754 10.0693 2.65844 10.4537 4.08861L18.5012 34.0645C18.9113 35.598 18.9113 37.2209 18.5012 38.7543L10.4537 68.7284C10.1382 69.903 9.46705 70.9371 8.54212 71.6736C7.61719 72.4101 6.48907 72.8087 5.32917 72.8089Z" fill="#9B0BF9"/>
</svg>
